<svg id="Layer_1" fill="#5396e7" enable-background="new 0 0 512.046 512.046" height="512" viewBox="0 0 512.046 512.046" width="512" xmlns="http://www.w3.org/2000/svg"><path d="m488.886 191.69c34.708-47.475 30.207-113.977-12.162-156.345-42.029-42.028-108.486-47.147-156.344-12.16l-1.587-1.587c-12.477-12.475-32.778-12.474-45.254 0l-47.554 47.555c-11.72 11.72-13.49 31.764.567 45.822-31.971 31.972-104.321 104.321-111.556 111.557-13.886-13.894-33.993-12.394-45.822-.568l-47.554 47.555c-12.505 12.505-12.507 32.747 0 45.256l1.586 1.586c-56.269 76.961-4.254 187.303 92.094 191.547 26.792 1.182 53.802-6.508 76.413-23.04 6.618 6.617 13.768 10.941 24.212 10.941 8.195 0 16.389-3.119 22.627-9.356l47.554-47.555c12.505-12.504 12.508-32.747 0-45.254-.883-.883-9.001 7.865 110.989-112.125 13.935 13.942 34.038 12.35 45.822.568l47.554-47.555c12.505-12.505 12.507-32.747 0-45.256zm-225.395 205.964c-.094-.094-1.048-1.049-1.15-1.15.1 0-.291-.288 1.15 1.15zm-67.627 20.078-101.526-101.526 17.523-17.523 101.525 101.526zm102.84-305.891 17.523-17.523 101.526 101.525-17.523 17.523zm-61.406-31.374 47.554-47.555c6.238-6.24 16.389-6.24 22.627 0 12.496 12.495 17.135 15.401 17.135 23.762 0 4.274-1.664 8.292-4.686 11.313-48.232 48.231 7.518-7.517-47.554 47.555-6.238 6.238-16.39 6.238-22.628 0-1.092-1.092-11.356-11.357-12.448-12.449-6.252-6.251-6.254-16.374 0-22.626zm-204.366 204.365 47.554-47.555c3.12-3.12 7.216-4.679 11.314-4.679 9.003 0 12.543 6.428 17.546 10.91 6.935 6.935 6.117 6.217 6.217 6.217 6.252 6.251 6.254 16.374 0 22.626l-47.555 47.555c-6.238 6.239-16.389 6.239-22.627 0-.708-.708-1.135-1.135-12.448-12.447-6.252-6.25-6.256-16.373-.001-22.627zm241.86 146.75-47.554 47.555c-6.239 6.238-16.39 6.239-22.627 0-12.496-12.495-17.135-15.401-17.135-23.762 0-8.316 5.243-11.817 12.459-19.086 29.621-29.841-39.909 39.91 39.781-39.782 6.236-6.236 16.386-6.238 22.626-.003.138.138 2.486 2.486 12.451 12.452 6.251 6.251 6.253 16.374-.001 22.626zm204.366-204.365-47.554 47.555c-6.238 6.24-16.389 6.238-22.628 0-12.657-12.656-17.135-15.331-17.135-23.762 0-4.274 1.664-8.292 4.686-11.313l47.555-47.555c6.235-6.236 16.388-6.24 22.627 0 12.496 12.495 17.135 15.401 17.135 23.762 0 4.274-1.664 8.292-4.686 11.313z"/><path d="m199.847 436.377c-.045.045-.071.071 0 0z"/></svg>
